# xmcd
#
# Track frame offsets:
#	150
#	14930
#	25945
#	43907
#	55296
#	67876
#	77212
#	93377
#	103225
#	118752
#	129964
#
# Disc length: 1991 seconds
#
# Revision: 0
# Processed by: cddbd v1.5.1PL0 Copyright (c) Steve Scherf et al.
# Submitted via: audiograbber 1.83.01
#
DISCID=9907c50b
DTITLE=Rod Steward and The Steampacket - Ain't That Lovin' You Baby
DYEAR=1900
DGENRE=
TTITLE0=Bright Lights Big City
TTITLE1=Ain't That Lovin' You Baby
TTITLE2=Don't You Tell Nobody
TTITLE3=Just Like I Treat You
TTITLE4=Moppers Blues
TTITLE5=Keep Your Hands Off Her
TTITLE6=Can I Get A Witness
TTITLE7=Baby Take Me
TTITLE8=Oh Baby Don´t You Do It
TTITLE9=Bright Lights Big City (alternative version)
TTITLE10=Lord Remember Me
EXTD=The tracks featured are early demo recordings.\nSound quality may vary
EXTT0=
EXTT1=
EXTT2=
EXTT3=
EXTT4=
EXTT5=
EXTT6=
EXTT7=
EXTT8=
EXTT9=alternative version)
EXTT10=
PLAYORDER=
